<?xml version="1.0" encoding="UTF-8" standalone="no"?>
<!DOCTYPE svg PUBLIC "-//W3C//DTD SVG 1.1//EN" "http://www.w3.org/Graphics/SVG/1.1/DTD/svg11.dtd">
<svg width="100%" height="100%" viewBox="0 0 647 64" version="1.1" xmlns="http://www.w3.org/2000/svg" xmlns:xlink="http://www.w3.org/1999/xlink" xml:space="preserve" xmlns:serif="http://www.serif.com/" style="fill-rule:evenodd;clip-rule:evenodd;stroke-linejoin:round;stroke-miterlimit:2;">
    <g transform="matrix(1,0,0,1,-54.4139,-47.6476)">
        <g transform="matrix(0.930795,0,0,0.51703,43.9453,40.1867)">
            <path d="M85.817,110.9L98.675,50.718L52.222,50.718L54.794,38.473L101.246,38.473L106.389,14.43L27.918,14.43L34.388,28.766L24.6,74.612L71.052,74.612L68.398,87.006L21.945,87.006L16.885,110.9L85.817,110.9Z" style="fill:rgb(255,6,0);fill-rule:nonzero;"/>
            <path d="M160.153,41.993L104.043,41.993L108.664,52.233L96.162,110.9L112.219,110.9L116.9,88.82L150.14,88.82L160.153,41.993ZM123.24,59.166L140.422,59.166L137.756,71.753L120.574,71.753L123.24,59.166Z" style="fill:rgb(255,6,0);fill-rule:nonzero;"/>
            <path d="M181.898,59.166L215.137,59.166L218.811,41.993L162.701,41.993L167.322,52.233L154.82,110.9L204.117,110.9L207.731,93.833L174.491,93.833L176.387,84.98L209.627,84.98L213.3,67.913L180.061,67.913L181.898,59.166Z" style="fill:rgb(255,6,0);fill-rule:nonzero;"/>
            <path d="M240.615,59.166L273.854,59.166L277.528,41.993L221.418,41.993L226.039,52.233L213.537,110.9L262.834,110.9L266.448,93.833L233.209,93.833L235.105,84.98L268.344,84.98L272.017,67.913L238.778,67.913L240.615,59.166Z" style="fill:rgb(255,6,0);fill-rule:nonzero;"/>
            <path d="M272.254,110.9L306.797,110.9L325.995,90.1L336.245,41.993L280.135,41.993L284.756,52.233L272.254,110.9ZM316.515,59.166L311.834,81.033L300.576,93.833L291.926,93.833L299.332,59.166L316.515,59.166Z" style="fill:rgb(255,6,0);fill-rule:nonzero;"/>
            <path d="M376.867,14.43L344.848,14.43L351.318,28.766L333.816,110.9L399.264,110.9L404.324,87.006L361.355,87.006L376.867,14.43Z" style="fill:white;fill-rule:nonzero;"/>
            <path d="M433.783,59.166L467.022,59.166L470.696,41.993L414.586,41.993L419.207,52.233L406.705,110.9L456.002,110.9L459.616,93.833L426.377,93.833L428.273,84.98L461.512,84.98L465.186,67.913L431.946,67.913L433.783,59.166Z" style="fill:white;fill-rule:nonzero;"/>
            <path d="M529.413,41.993L473.303,41.993L477.924,52.233L465.423,110.9L481.479,110.9L486.16,88.82L503.343,88.82L498.662,110.9L514.719,110.9L529.413,41.993ZM492.5,59.166L509.683,59.166L507.016,71.753L489.834,71.753L492.5,59.166Z" style="fill:white;fill-rule:nonzero;"/>
            <path d="M573.317,110.9L582.501,67.913L558.386,67.913L554.713,84.98L562.771,84.98L560.875,93.833L543.751,93.833L551.158,59.166L584.338,59.166L588.011,41.993L531.961,41.993L536.582,52.233L524.08,110.9L573.317,110.9Z" style="fill:white;fill-rule:nonzero;"/>
            <path d="M595.24,52.233L582.738,110.9L632.034,110.9L646.729,41.993L630.672,41.993L619.592,93.833L602.409,93.833L613.489,41.993L590.619,41.993L595.24,52.233Z" style="fill:white;fill-rule:nonzero;"/>
            <path d="M668.533,59.166L701.772,59.166L705.446,41.993L649.336,41.993L653.957,52.233L641.455,110.9L690.752,110.9L694.366,93.833L661.126,93.833L663.022,84.98L696.262,84.98L699.935,67.913L666.696,67.913L668.533,59.166Z" style="fill:white;fill-rule:nonzero;"/>
        </g>
        <g transform="matrix(5.69869e-17,1,-4.48646,2.78962e-16,983.83,60.9347)">
            <path d="M43.046,66.734L50.367,207.16L43.046,206.539L43.046,66.734Z" style="fill:white;"/>
        </g>
    </g>
</svg>
