<?xml version="1.0" encoding="UTF-8" standalone="no"?>
<!DOCTYPE svg PUBLIC "-//W3C//DTD SVG 1.1//EN" "http://www.w3.org/Graphics/SVG/1.1/DTD/svg11.dtd">
<svg width="100%" height="100%" viewBox="0 0 647 66" version="1.1" xmlns="http://www.w3.org/2000/svg" xmlns:xlink="http://www.w3.org/1999/xlink" xml:space="preserve" xmlns:serif="http://www.serif.com/" style="fill-rule:evenodd;clip-rule:evenodd;stroke-linejoin:round;stroke-miterlimit:2;">
    <g transform="matrix(1,0,0,1,-27.5087,-376.088)">
        <g transform="matrix(1,0,0,1,-24.8556,344.781)">
            <g transform="matrix(0.930795,0,0,0.51703,42.3917,23.8457)">
                <path d="M85.817,110.9L98.675,50.718L52.222,50.718L54.794,38.473L101.246,38.473L106.389,14.43L27.918,14.43L34.388,28.766L24.6,74.612L71.052,74.612L68.398,87.006L21.945,87.006L16.885,110.9L85.817,110.9Z" style="fill:url(#_Linear1);fill-rule:nonzero;"/>
                <path d="M85.817,110.9L98.675,50.718L52.222,50.718L54.794,38.473L101.246,38.473L106.389,14.43L27.918,14.43L34.388,28.766L24.6,74.612L71.052,74.612L68.398,87.006L21.945,87.006L16.885,110.9L85.817,110.9ZM83.85,105.742L21.044,105.742C21.044,105.742 23.919,92.164 23.919,92.164C23.919,92.164 68.398,92.164 68.398,92.164C69.582,92.164 70.645,90.852 71.071,88.862L73.725,76.467C74.065,74.881 73.949,73.095 73.414,71.694C72.88,70.292 71.996,69.454 71.052,69.454L28.77,69.454C28.77,69.454 37.062,30.617 37.062,30.617C37.43,28.893 37.258,26.947 36.612,25.514L33.937,19.588C33.937,19.588 102.216,19.588 102.216,19.588C102.216,19.588 99.279,33.315 99.279,33.315C99.279,33.315 54.794,33.315 54.794,33.315C53.602,33.315 52.535,34.643 52.114,36.649L49.543,48.895C49.21,50.479 49.33,52.257 49.865,53.651C50.4,55.044 51.281,55.876 52.222,55.876L94.503,55.876L83.85,105.742Z" style="fill:rgb(255,6,0);"/>
                <path d="M160.153,41.993L104.043,41.993L108.664,52.233L96.162,110.9L112.219,110.9L116.9,88.82L150.14,88.82L160.153,41.993ZM123.24,59.166L140.422,59.166L137.756,71.753L120.574,71.753L123.24,59.166Z" style="fill:url(#_Linear2);fill-rule:nonzero;"/>
                <path d="M160.153,41.993L104.043,41.993L108.664,52.233L96.162,110.9L112.219,110.9L116.9,88.82L150.14,88.82L160.153,41.993ZM155.98,47.151L148.173,83.662C148.173,83.662 116.9,83.662 116.9,83.662C115.712,83.662 114.647,84.982 114.223,86.981L110.246,105.742C110.246,105.742 100.33,105.742 100.33,105.742C100.33,105.742 111.339,54.08 111.339,54.08C111.706,52.358 111.534,50.413 110.888,48.981L110.062,47.151L155.98,47.151ZM123.24,54.009C122.051,54.009 120.986,55.33 120.563,57.329L117.897,69.915C117.561,71.501 117.68,73.282 118.214,74.679C118.749,76.076 119.631,76.911 120.574,76.911L137.756,76.911C138.945,76.911 140.01,75.59 140.433,73.591L143.099,61.004C143.435,59.419 143.316,57.638 142.782,56.24C142.247,54.843 141.365,54.009 140.422,54.009L123.24,54.009ZM123.24,59.166L140.422,59.166L137.756,71.753L120.574,71.753L123.24,59.166Z" style="fill:rgb(255,6,0);"/>
                <path d="M181.898,59.166L215.137,59.166L218.811,41.993L162.701,41.993L167.322,52.233L154.82,110.9L204.117,110.9L207.731,93.833L174.491,93.833L176.387,84.98L209.627,84.98L213.3,67.913L180.061,67.913L181.898,59.166Z" style="fill:url(#_Linear3);fill-rule:nonzero;"/>
                <path d="M181.898,59.166L215.137,59.166L218.811,41.993L162.701,41.993L167.322,52.233L154.82,110.9L204.117,110.9L207.731,93.833L174.491,93.833L176.387,84.98L209.627,84.98L213.3,67.913L180.061,67.913L181.898,59.166ZM181.898,54.009C180.706,54.009 179.639,55.336 179.218,57.343L177.381,66.089C177.048,67.674 177.169,69.452 177.704,70.845C178.239,72.239 179.12,73.071 180.061,73.071L209.118,73.071C209.118,73.071 207.665,79.822 207.665,79.822C207.665,79.822 176.387,79.822 176.387,79.822C175.203,79.822 174.14,81.135 173.714,83.124L171.818,91.978C171.479,93.564 171.595,95.35 172.129,96.751C172.663,98.153 173.547,98.991 174.491,98.991L203.573,98.991C203.573,98.991 202.143,105.742 202.143,105.742C202.143,105.742 158.988,105.742 158.988,105.742C158.988,105.742 169.997,54.08 169.997,54.08C170.364,52.358 170.192,50.413 169.546,48.981L168.72,47.151C168.72,47.151 214.637,47.151 214.637,47.151C214.637,47.151 213.17,54.009 213.17,54.009C213.17,54.009 181.898,54.009 181.898,54.009Z" style="fill:rgb(255,6,0);"/>
                <path d="M240.615,59.166L273.854,59.166L277.528,41.993L221.418,41.993L226.039,52.233L213.537,110.9L262.834,110.9L266.448,93.833L233.209,93.833L235.105,84.98L268.344,84.98L272.017,67.913L238.778,67.913L240.615,59.166Z" style="fill:url(#_Linear4);fill-rule:nonzero;"/>
                <path d="M240.615,59.166L273.854,59.166L277.528,41.993L221.418,41.993L226.039,52.233L213.537,110.9L262.834,110.9L266.448,93.833L233.209,93.833L235.105,84.98L268.344,84.98L272.017,67.913L238.778,67.913L240.615,59.166ZM240.615,54.009C239.423,54.009 238.356,55.336 237.935,57.343L236.098,66.089C235.765,67.674 235.886,69.452 236.421,70.845C236.956,72.239 237.837,73.071 238.778,73.071L267.835,73.071C267.835,73.071 266.382,79.822 266.382,79.822C266.382,79.822 235.105,79.822 235.105,79.822C233.92,79.822 232.858,81.135 232.431,83.124L230.535,91.978C230.196,93.564 230.312,95.35 230.846,96.751C231.381,98.153 232.264,98.991 233.209,98.991L262.29,98.991C262.29,98.991 260.86,105.742 260.86,105.742C260.86,105.742 217.705,105.742 217.705,105.742C217.705,105.742 228.714,54.08 228.714,54.08C229.081,52.358 228.909,50.413 228.263,48.981L227.437,47.151C227.437,47.151 273.354,47.151 273.354,47.151C273.354,47.151 271.888,54.009 271.888,54.009C271.888,54.009 240.615,54.009 240.615,54.009Z" style="fill:rgb(255,6,0);"/>
                <path d="M272.254,110.9L306.797,110.9L325.995,90.1L336.245,41.993L280.135,41.993L284.756,52.233L272.254,110.9ZM316.515,59.166L311.834,81.033L300.576,93.833L291.926,93.833L299.332,59.166L316.515,59.166Z" style="fill:url(#_Linear5);fill-rule:nonzero;"/>
                <path d="M272.254,110.9L306.797,110.9L325.995,90.1L336.245,41.993L280.135,41.993L284.756,52.233L272.254,110.9ZM276.422,105.742L287.431,54.08C287.798,52.358 287.626,50.413 286.98,48.981L286.154,47.151C286.154,47.151 332.077,47.151 332.077,47.151C332.077,47.151 323.673,86.596 323.673,86.596C323.673,86.596 306.002,105.742 306.002,105.742L276.422,105.742ZM319.188,61.021C319.527,59.435 319.411,57.649 318.877,56.248C318.342,54.846 317.459,54.009 316.515,54.009L299.332,54.009C298.146,54.009 297.083,55.323 296.658,57.315L289.252,91.982C288.913,93.568 289.03,95.352 289.564,96.753C290.098,98.154 290.982,98.991 291.926,98.991L300.576,98.991C301.118,98.991 301.648,98.714 302.106,98.194L313.364,85.394C313.885,84.802 314.285,83.923 314.507,82.888L319.188,61.021ZM316.515,59.166L311.834,81.033L300.576,93.833L291.926,93.833L299.332,59.166L316.515,59.166Z" style="fill:rgb(255,6,0);"/>
                <path d="M376.867,14.43L344.848,14.43L351.318,28.766L333.816,110.9L399.264,110.9L404.324,87.006L361.355,87.006L376.867,14.43Z" style="fill:url(#_Linear6);fill-rule:nonzero;"/>
                <path d="M376.867,14.43L344.848,14.43L351.318,28.766L333.816,110.9L399.264,110.9L404.324,87.006L361.355,87.006L376.867,14.43ZM372.695,19.588L358.681,85.154C358.342,86.74 358.459,88.525 358.993,89.926C359.528,91.327 360.411,92.164 361.355,92.164L400.165,92.164C400.165,92.164 397.29,105.742 397.29,105.742C397.29,105.742 337.983,105.742 337.983,105.742C337.983,105.742 353.993,30.614 353.993,30.614C354.36,28.891 354.188,26.946 353.542,25.514L350.867,19.588L372.695,19.588Z" style="fill:white;"/>
                <path d="M433.783,59.166L467.022,59.166L470.696,41.993L414.586,41.993L419.207,52.233L406.705,110.9L456.002,110.9L459.616,93.833L426.377,93.833L428.273,84.98L461.512,84.98L465.186,67.913L431.946,67.913L433.783,59.166Z" style="fill:url(#_Linear7);fill-rule:nonzero;"/>
                <path d="M433.783,59.166L467.022,59.166L470.696,41.993L414.586,41.993L419.207,52.233L406.705,110.9L456.002,110.9L459.616,93.833L426.377,93.833L428.273,84.98L461.512,84.98L465.186,67.913L431.946,67.913L433.783,59.166ZM433.783,54.009C432.591,54.009 431.524,55.336 431.103,57.343L429.266,66.089C428.933,67.674 429.054,69.452 429.589,70.845C430.124,72.239 431.005,73.071 431.946,73.071L461.003,73.071C461.003,73.071 459.55,79.822 459.55,79.822C459.55,79.822 428.273,79.822 428.273,79.822C427.088,79.822 426.026,81.135 425.599,83.124L423.703,91.978C423.364,93.564 423.48,95.35 424.014,96.751C424.549,98.153 425.432,98.991 426.377,98.991L455.458,98.991C455.458,98.991 454.028,105.742 454.028,105.742C454.028,105.742 410.873,105.742 410.873,105.742C410.873,105.742 421.882,54.08 421.882,54.08C422.249,52.358 422.077,50.413 421.431,48.981L420.605,47.151C420.605,47.151 466.522,47.151 466.522,47.151C466.522,47.151 465.056,54.009 465.056,54.009C465.056,54.009 433.783,54.009 433.783,54.009Z" style="fill:white;"/>
                <path d="M529.413,41.993L473.303,41.993L477.924,52.233L465.423,110.9L481.479,110.9L486.16,88.82L503.343,88.82L498.662,110.9L514.719,110.9L529.413,41.993ZM492.5,59.166L509.683,59.166L507.016,71.753L489.834,71.753L492.5,59.166Z" style="fill:url(#_Linear8);fill-rule:nonzero;"/>
                <path d="M529.413,41.993L473.303,41.993L477.924,52.233L465.423,110.9L481.479,110.9L486.16,88.82L503.343,88.82L498.662,110.9L514.719,110.9L529.413,41.993ZM525.244,47.151L512.75,105.742C512.75,105.742 502.822,105.742 502.822,105.742C502.822,105.742 506.019,90.659 506.019,90.659C506.355,89.073 506.237,87.292 505.702,85.894C505.168,84.497 504.285,83.662 503.343,83.662L486.16,83.662C484.972,83.662 483.907,84.982 483.483,86.981L479.506,105.742C479.506,105.742 469.59,105.742 469.59,105.742C469.59,105.742 480.599,54.08 480.599,54.08C480.966,52.358 480.794,50.413 480.148,48.981L479.322,47.151L525.244,47.151ZM492.5,54.009C491.312,54.009 490.246,55.33 489.823,57.329L487.157,69.915C486.821,71.501 486.94,73.282 487.474,74.679C488.009,76.076 488.891,76.911 489.834,76.911L507.016,76.911C508.205,76.911 509.27,75.59 509.693,73.591L512.359,61.004C512.695,59.419 512.576,57.638 512.042,56.24C511.507,54.843 510.625,54.009 509.683,54.009L492.5,54.009ZM492.5,59.166L509.683,59.166L507.016,71.753L489.834,71.753L492.5,59.166Z" style="fill:white;"/>
                <path d="M573.317,110.9L582.501,67.913L558.386,67.913L554.713,84.98L562.771,84.98L560.875,93.833L543.751,93.833L551.158,59.166L584.338,59.166L588.011,41.993L531.961,41.993L536.582,52.233L524.08,110.9L573.317,110.9Z" style="fill:url(#_Linear9);fill-rule:nonzero;"/>
                <path d="M573.317,110.9L582.501,67.913L558.386,67.913L554.713,84.98L562.771,84.98L560.875,93.833L543.751,93.833L551.158,59.166L584.338,59.166L588.011,41.993L531.961,41.993L536.582,52.233L524.08,110.9L573.317,110.9ZM571.35,105.742L528.248,105.742C528.248,105.742 539.257,54.08 539.257,54.08C539.624,52.358 539.452,50.413 538.806,48.981L537.98,47.151C537.98,47.151 583.838,47.151 583.838,47.151C583.838,47.151 582.371,54.009 582.371,54.009C582.371,54.009 551.158,54.009 551.158,54.009C549.972,54.009 548.909,55.323 548.484,57.315L541.077,91.982C540.739,93.568 540.855,95.352 541.39,96.753C541.924,98.154 542.808,98.991 543.751,98.991L560.875,98.991C562.059,98.991 563.122,97.678 563.548,95.688L565.444,86.835C565.784,85.249 565.667,83.463 565.133,82.062C564.599,80.66 563.715,79.822 562.771,79.822L558.895,79.822C558.895,79.822 560.349,73.071 560.349,73.071C560.349,73.071 578.33,73.071 578.33,73.071L571.35,105.742Z" style="fill:white;"/>
                <path d="M595.24,52.233L582.738,110.9L632.034,110.9L646.729,41.993L630.672,41.993L619.592,93.833L602.409,93.833L613.489,41.993L590.619,41.993L595.24,52.233Z" style="fill:url(#_Linear10);fill-rule:nonzero;"/>
                <path d="M595.24,52.233L582.738,110.9L632.034,110.9L646.729,41.993L630.672,41.993L619.592,93.833L602.409,93.833L613.489,41.993L590.619,41.993L595.24,52.233ZM597.915,54.08C598.282,52.358 598.11,50.413 597.464,48.981L596.638,47.151C596.638,47.151 609.317,47.151 609.317,47.151C609.317,47.151 599.735,91.981 599.735,91.981C599.397,93.567 599.513,95.352 600.048,96.753C600.582,98.154 601.465,98.991 602.409,98.991L619.592,98.991C620.777,98.991 621.84,97.677 622.266,95.685L632.639,47.151C632.639,47.151 642.56,47.151 642.56,47.151C642.56,47.151 630.066,105.742 630.066,105.742C630.066,105.742 586.906,105.742 586.906,105.742C586.906,105.742 597.915,54.08 597.915,54.08Z" style="fill:white;"/>
                <path d="M668.533,59.166L701.772,59.166L705.446,41.993L649.336,41.993L653.957,52.233L641.455,110.9L690.752,110.9L694.366,93.833L661.126,93.833L663.022,84.98L696.262,84.98L699.935,67.913L666.696,67.913L668.533,59.166Z" style="fill:url(#_Linear11);fill-rule:nonzero;"/>
                <path d="M668.533,59.166L701.772,59.166L705.446,41.993L649.336,41.993L653.957,52.233L641.455,110.9L690.752,110.9L694.366,93.833L661.126,93.833L663.022,84.98L696.262,84.98L699.935,67.913L666.696,67.913L668.533,59.166ZM668.533,54.009C667.341,54.009 666.274,55.336 665.853,57.343L664.016,66.089C663.683,67.674 663.804,69.452 664.339,70.845C664.874,72.239 665.755,73.071 666.696,73.071L695.753,73.071C695.753,73.071 694.3,79.822 694.3,79.822C694.3,79.822 663.022,79.822 663.022,79.822C661.838,79.822 660.775,81.135 660.349,83.124L658.453,91.978C658.114,93.564 658.23,95.35 658.764,96.751C659.298,98.153 660.182,98.991 661.126,98.991L690.208,98.991C690.208,98.991 688.778,105.742 688.778,105.742C688.778,105.742 645.623,105.742 645.623,105.742C645.623,105.742 656.632,54.08 656.632,54.08C656.999,52.358 656.827,50.413 656.181,48.981L655.355,47.151C655.355,47.151 701.272,47.151 701.272,47.151C701.272,47.151 699.805,54.009 699.805,54.009C699.805,54.009 668.533,54.009 668.533,54.009Z" style="fill:white;"/>
            </g>
        </g>
        <g transform="matrix(1,0,0,1,-24.8556,344.781)">
            <g transform="matrix(18.5805,0,-0.457372,1.20795,-228.389,-240.331)">
                <rect x="21.971" y="271.406" width="33.758" height="7.322" style="fill:rgb(187,187,187);"/>
                <path d="M55.729,271.406L21.971,271.406L21.971,278.727L55.729,278.727L55.729,271.406ZM55.576,273.613L55.576,276.52C55.576,276.52 22.125,276.52 22.125,276.52C22.125,276.52 22.125,273.613 22.125,273.613C22.125,273.613 55.576,273.613 55.576,273.613L55.576,273.613Z" style="fill:white;"/>
            </g>
        </g>
    </g>
    <defs>
        <linearGradient id="_Linear1" x1="0" y1="0" x2="1" y2="0" gradientUnits="userSpaceOnUse" gradientTransform="matrix(3.2812e-15,96.4693,-53.586,5.90704e-15,135.413,14.4304)"><stop offset="0" style="stop-color:rgb(255,6,0);stop-opacity:1"/><stop offset="0.25" style="stop-color:rgb(255,6,0);stop-opacity:1"/><stop offset="0.45" style="stop-color:rgb(245,6,0);stop-opacity:1"/><stop offset="0.53" style="stop-color:rgb(224,5,0);stop-opacity:1"/><stop offset="0.6" style="stop-color:rgb(204,5,0);stop-opacity:1"/><stop offset="0.63" style="stop-color:rgb(184,4,0);stop-opacity:1"/><stop offset="0.66" style="stop-color:rgb(163,3,0);stop-opacity:1"/><stop offset="0.75" style="stop-color:rgb(153,3,0);stop-opacity:1"/><stop offset="1" style="stop-color:rgb(153,3,0);stop-opacity:1"/></linearGradient>
        <linearGradient id="_Linear2" x1="0" y1="0" x2="1" y2="0" gradientUnits="userSpaceOnUse" gradientTransform="matrix(3.2812e-15,96.4693,-53.586,5.90704e-15,135.413,14.4304)"><stop offset="0" style="stop-color:rgb(255,6,0);stop-opacity:1"/><stop offset="0.25" style="stop-color:rgb(255,6,0);stop-opacity:1"/><stop offset="0.45" style="stop-color:rgb(245,6,0);stop-opacity:1"/><stop offset="0.53" style="stop-color:rgb(224,5,0);stop-opacity:1"/><stop offset="0.6" style="stop-color:rgb(204,5,0);stop-opacity:1"/><stop offset="0.63" style="stop-color:rgb(184,4,0);stop-opacity:1"/><stop offset="0.66" style="stop-color:rgb(163,3,0);stop-opacity:1"/><stop offset="0.75" style="stop-color:rgb(153,3,0);stop-opacity:1"/><stop offset="1" style="stop-color:rgb(153,3,0);stop-opacity:1"/></linearGradient>
        <linearGradient id="_Linear3" x1="0" y1="0" x2="1" y2="0" gradientUnits="userSpaceOnUse" gradientTransform="matrix(3.2812e-15,96.4693,-53.586,5.90704e-15,135.413,14.4304)"><stop offset="0" style="stop-color:rgb(255,6,0);stop-opacity:1"/><stop offset="0.25" style="stop-color:rgb(255,6,0);stop-opacity:1"/><stop offset="0.45" style="stop-color:rgb(245,6,0);stop-opacity:1"/><stop offset="0.53" style="stop-color:rgb(224,5,0);stop-opacity:1"/><stop offset="0.6" style="stop-color:rgb(204,5,0);stop-opacity:1"/><stop offset="0.63" style="stop-color:rgb(184,4,0);stop-opacity:1"/><stop offset="0.66" style="stop-color:rgb(163,3,0);stop-opacity:1"/><stop offset="0.75" style="stop-color:rgb(153,3,0);stop-opacity:1"/><stop offset="1" style="stop-color:rgb(153,3,0);stop-opacity:1"/></linearGradient>
        <linearGradient id="_Linear4" x1="0" y1="0" x2="1" y2="0" gradientUnits="userSpaceOnUse" gradientTransform="matrix(3.2812e-15,96.4693,-53.586,5.90704e-15,135.413,14.4304)"><stop offset="0" style="stop-color:rgb(255,6,0);stop-opacity:1"/><stop offset="0.25" style="stop-color:rgb(255,6,0);stop-opacity:1"/><stop offset="0.45" style="stop-color:rgb(245,6,0);stop-opacity:1"/><stop offset="0.53" style="stop-color:rgb(224,5,0);stop-opacity:1"/><stop offset="0.6" style="stop-color:rgb(204,5,0);stop-opacity:1"/><stop offset="0.63" style="stop-color:rgb(184,4,0);stop-opacity:1"/><stop offset="0.66" style="stop-color:rgb(163,3,0);stop-opacity:1"/><stop offset="0.75" style="stop-color:rgb(153,3,0);stop-opacity:1"/><stop offset="1" style="stop-color:rgb(153,3,0);stop-opacity:1"/></linearGradient>
        <linearGradient id="_Linear5" x1="0" y1="0" x2="1" y2="0" gradientUnits="userSpaceOnUse" gradientTransform="matrix(3.2812e-15,96.4693,-53.586,5.90704e-15,135.413,14.4304)"><stop offset="0" style="stop-color:rgb(255,6,0);stop-opacity:1"/><stop offset="0.25" style="stop-color:rgb(255,6,0);stop-opacity:1"/><stop offset="0.45" style="stop-color:rgb(245,6,0);stop-opacity:1"/><stop offset="0.53" style="stop-color:rgb(224,5,0);stop-opacity:1"/><stop offset="0.6" style="stop-color:rgb(204,5,0);stop-opacity:1"/><stop offset="0.63" style="stop-color:rgb(184,4,0);stop-opacity:1"/><stop offset="0.66" style="stop-color:rgb(163,3,0);stop-opacity:1"/><stop offset="0.75" style="stop-color:rgb(153,3,0);stop-opacity:1"/><stop offset="1" style="stop-color:rgb(153,3,0);stop-opacity:1"/></linearGradient>
        <linearGradient id="_Linear6" x1="0" y1="0" x2="1" y2="0" gradientUnits="userSpaceOnUse" gradientTransform="matrix(3.2812e-15,96.4693,-53.586,5.90704e-15,404.324,14.4304)"><stop offset="0" style="stop-color:white;stop-opacity:1"/><stop offset="0.25" style="stop-color:white;stop-opacity:1"/><stop offset="0.45" style="stop-color:rgb(248,248,248);stop-opacity:1"/><stop offset="0.53" style="stop-color:rgb(234,234,234);stop-opacity:1"/><stop offset="0.6" style="stop-color:rgb(221,221,221);stop-opacity:1"/><stop offset="0.63" style="stop-color:rgb(208,208,208);stop-opacity:1"/><stop offset="0.66" style="stop-color:rgb(194,194,194);stop-opacity:1"/><stop offset="0.75" style="stop-color:rgb(187,187,187);stop-opacity:1"/><stop offset="1" style="stop-color:rgb(187,187,187);stop-opacity:1"/></linearGradient>
        <linearGradient id="_Linear7" x1="0" y1="0" x2="1" y2="0" gradientUnits="userSpaceOnUse" gradientTransform="matrix(3.2812e-15,96.4693,-53.586,5.90704e-15,404.324,14.4304)"><stop offset="0" style="stop-color:white;stop-opacity:1"/><stop offset="0.25" style="stop-color:white;stop-opacity:1"/><stop offset="0.45" style="stop-color:rgb(248,248,248);stop-opacity:1"/><stop offset="0.53" style="stop-color:rgb(234,234,234);stop-opacity:1"/><stop offset="0.6" style="stop-color:rgb(221,221,221);stop-opacity:1"/><stop offset="0.63" style="stop-color:rgb(208,208,208);stop-opacity:1"/><stop offset="0.66" style="stop-color:rgb(194,194,194);stop-opacity:1"/><stop offset="0.75" style="stop-color:rgb(187,187,187);stop-opacity:1"/><stop offset="1" style="stop-color:rgb(187,187,187);stop-opacity:1"/></linearGradient>
        <linearGradient id="_Linear8" x1="0" y1="0" x2="1" y2="0" gradientUnits="userSpaceOnUse" gradientTransform="matrix(3.2812e-15,96.4693,-53.586,5.90704e-15,404.324,14.4304)"><stop offset="0" style="stop-color:white;stop-opacity:1"/><stop offset="0.25" style="stop-color:white;stop-opacity:1"/><stop offset="0.45" style="stop-color:rgb(248,248,248);stop-opacity:1"/><stop offset="0.53" style="stop-color:rgb(234,234,234);stop-opacity:1"/><stop offset="0.6" style="stop-color:rgb(221,221,221);stop-opacity:1"/><stop offset="0.63" style="stop-color:rgb(208,208,208);stop-opacity:1"/><stop offset="0.66" style="stop-color:rgb(194,194,194);stop-opacity:1"/><stop offset="0.75" style="stop-color:rgb(187,187,187);stop-opacity:1"/><stop offset="1" style="stop-color:rgb(187,187,187);stop-opacity:1"/></linearGradient>
        <linearGradient id="_Linear9" x1="0" y1="0" x2="1" y2="0" gradientUnits="userSpaceOnUse" gradientTransform="matrix(3.2812e-15,96.4693,-53.586,5.90704e-15,404.324,14.4304)"><stop offset="0" style="stop-color:white;stop-opacity:1"/><stop offset="0.25" style="stop-color:white;stop-opacity:1"/><stop offset="0.45" style="stop-color:rgb(248,248,248);stop-opacity:1"/><stop offset="0.53" style="stop-color:rgb(234,234,234);stop-opacity:1"/><stop offset="0.6" style="stop-color:rgb(221,221,221);stop-opacity:1"/><stop offset="0.63" style="stop-color:rgb(208,208,208);stop-opacity:1"/><stop offset="0.66" style="stop-color:rgb(194,194,194);stop-opacity:1"/><stop offset="0.75" style="stop-color:rgb(187,187,187);stop-opacity:1"/><stop offset="1" style="stop-color:rgb(187,187,187);stop-opacity:1"/></linearGradient>
        <linearGradient id="_Linear10" x1="0" y1="0" x2="1" y2="0" gradientUnits="userSpaceOnUse" gradientTransform="matrix(3.2812e-15,96.4693,-53.586,5.90704e-15,404.324,14.4304)"><stop offset="0" style="stop-color:white;stop-opacity:1"/><stop offset="0.25" style="stop-color:white;stop-opacity:1"/><stop offset="0.45" style="stop-color:rgb(248,248,248);stop-opacity:1"/><stop offset="0.53" style="stop-color:rgb(234,234,234);stop-opacity:1"/><stop offset="0.6" style="stop-color:rgb(221,221,221);stop-opacity:1"/><stop offset="0.63" style="stop-color:rgb(208,208,208);stop-opacity:1"/><stop offset="0.66" style="stop-color:rgb(194,194,194);stop-opacity:1"/><stop offset="0.75" style="stop-color:rgb(187,187,187);stop-opacity:1"/><stop offset="1" style="stop-color:rgb(187,187,187);stop-opacity:1"/></linearGradient>
        <linearGradient id="_Linear11" x1="0" y1="0" x2="1" y2="0" gradientUnits="userSpaceOnUse" gradientTransform="matrix(3.2812e-15,96.4693,-53.586,5.90704e-15,404.324,14.4304)"><stop offset="0" style="stop-color:white;stop-opacity:1"/><stop offset="0.25" style="stop-color:white;stop-opacity:1"/><stop offset="0.45" style="stop-color:rgb(248,248,248);stop-opacity:1"/><stop offset="0.53" style="stop-color:rgb(234,234,234);stop-opacity:1"/><stop offset="0.6" style="stop-color:rgb(221,221,221);stop-opacity:1"/><stop offset="0.63" style="stop-color:rgb(208,208,208);stop-opacity:1"/><stop offset="0.66" style="stop-color:rgb(194,194,194);stop-opacity:1"/><stop offset="0.75" style="stop-color:rgb(187,187,187);stop-opacity:1"/><stop offset="1" style="stop-color:rgb(187,187,187);stop-opacity:1"/></linearGradient>
    </defs>
</svg>
